<?xml version="1.0" encoding="UTF-8"?>
<svg width="120px" height="120px" viewBox="0 0 120 120" version="1.1" xmlns="http://www.w3.org/2000/svg" xmlns:xlink="http://www.w3.org/1999/xlink">
    <!-- Generator: Sketch 45.2 (43514) - http://www.bohemiancoding.com/sketch -->
    <title>leafGreen</title>
    <desc>Created with Sketch.</desc>
    <defs>
        <path d="M85.6050955,4.28651685 C85.6050955,4.28651685 36.0302734,11.0224719 15.5615234,37.9033203 C-4.90722656,64.7841687 7.33757962,108.38764 7.33757962,108.38764 C7.33757962,108.38764 -3.52203822,82.6685393 1.36968153,60.011236 C6.26140127,37.3539326 20.9365605,20.8202247 42.3378344,11.0224719 C63.7391083,1.2247191 95.5352866,0 95.5352866,0 C95.5352866,0 77.2219785,11.3422138 79.203125,28.4882813 C81.1842715,45.6343487 65.5518824,76.5449438 47.8193983,89.4044944 C30.0869142,102.264045 7.94904459,109 7.94904459,109 C7.94904459,109 50.3417969,87.6494141 60.8925781,69.9472656 C71.4433594,52.2451172 75.5097656,37.6748047 75.2802734,25.8066406 C74.9518519,8.82235699 85.6050955,4.28651685 85.6050955,4.28651685 Z M8.4765625,106.192383 C9.37955729,80.1077474 15.4248047,59.78125 26.6123047,45.2128906 C37.7998047,30.6445313 53.9934896,18.4895833 75.1933594,8.74804688 C67.5227865,14.1425781 63.2330729,19.0133464 62.3242188,23.3603516 C60.9609375,29.8808594 48.1669922,30.5683594 31.1601563,54 C19.8222656,69.6210938 12.2610677,87.0185547 8.4765625,106.192383 Z" id="path-1"></path>
    </defs>
    <g id="leaf-icon" stroke="none" stroke-width="1" fill="none" fill-rule="evenodd">
        <g id="leafGreen">
            <g id="Leaf" transform="translate(12.000000, 6.000000)">
                <mask id="mask-2" fill="white">
                    <use xlink:href="#path-1"></use>
                </mask>
                <use id="Combined-Shape" fill="#4CAF50" xlink:href="#path-1"></use>
            </g>
        </g>
    </g>
</svg>