<?xml version="1.0" encoding="UTF-8"?>
<svg width="120px" height="120px" viewBox="0 0 120 120" version="1.1" xmlns="http://www.w3.org/2000/svg" xmlns:xlink="http://www.w3.org/1999/xlink">
    <!-- Generator: Sketch 42 (36781) - http://www.bohemiancoding.com/sketch -->
    <title>Artboard</title>
    <desc>Created with Sketch.</desc>
    <defs>
        <path d="M85.6050955,4.28651685 C85.6050955,4.28651685 49.5286624,13.4719101 36.6878981,36.741573 C23.8471338,60.011236 7.33757962,108.38764 7.33757962,108.38764 C7.33757962,108.38764 -3.52203822,82.6685393 1.36968153,60.011236 C6.26140127,37.3539326 20.9365605,20.8202247 42.3378344,11.0224719 C63.7391083,1.2247191 95.5352866,-8.70215261e-15 95.5352866,-8.70215261e-15 C95.5352866,-8.70215261e-15 77.5092994,12.8595506 79.4904459,30.005618 C81.4715924,47.1516854 65.5518824,76.5449438 47.8193983,89.4044944 C30.0869142,102.264045 7.94904459,109 7.94904459,109 C7.94904459,109 33.0191083,54.5023152 47.6942675,36.741573 C62.3694268,18.9808309 85.6050955,4.28651685 85.6050955,4.28651685 Z" id="path-1"></path>
        <filter x="-50%" y="-50%" width="200%" height="200%" filterUnits="objectBoundingBox" id="filter-2">
            <feOffset dx="0" dy="2" in="SourceAlpha" result="shadowOffsetOuter1"></feOffset>
            <feGaussianBlur stdDeviation="2" in="shadowOffsetOuter1" result="shadowBlurOuter1"></feGaussianBlur>
            <feColorMatrix values="0 0 0 0 0   0 0 0 0 0   0 0 0 0 0  0 0 0 0.5 0" type="matrix" in="shadowBlurOuter1"></feColorMatrix>
        </filter>
    </defs>
    <g id="leaf-icon" stroke="none" stroke-width="1" fill="none" fill-rule="evenodd">
        <g id="Artboard">
            <g id="Leaf" transform="translate(12.000000, 6.000000)">
                <g id="Path">
                    <use fill="black" fill-opacity="1" filter="url(#filter-2)" xlink:href="#path-1"></use>
                    <use fill="#4CAF50" fill-rule="evenodd" xlink:href="#path-1"></use>
                </g>
            </g>
        </g>
    </g>
</svg>